<?xml version="1.0" encoding="utf-8"?>
<!-- Designed by Vexels.com - 2016 All Rights Reserved - https://vexels.com/terms-and-conditions/  -->

<svg version="1.0" id="Capa_1" xmlns="http://www.w3.org/2000/svg" xmlns:xlink="http://www.w3.org/1999/xlink" x="0px" y="0px"
	 width="1200px" height="1200px" viewBox="0 0 1200 1200" enable-background="new 0 0 1200 1200" xml:space="preserve">
<g>
	<g>
		<g>
			<path d="M550.375,83.382c-43.613-2.199-87.257,10.603-127.166,27.087c-46.374,19.154-90.037,44.272-131.445,72.502
				c-38.258,26.083-74.929,54.91-108.68,86.633c-37.95,35.67-69.572,79.08-90.856,126.671
				c-20.681,46.244-31.241,96.131-31.749,146.77c-0.509,50.667,9.154,101.316,24.897,149.337
				c16.996,51.844,41.259,101.248,69.438,147.879c23.515,38.913,49.063,76.863,79.021,111.142
				c48.177,55.126,108.068,100.466,175.491,129.324c62.787,26.872,130.738,39.744,199.014,38.306
				c66.578-1.402,132.821-16.094,194.214-41.717c62.744-26.186,120.526-63.12,170.399-109.378
				c49.28-45.709,90.394-100.814,119.083-161.645c30.177-63.984,46.472-133.801,47.46-204.561
				c0.531-38.02-3.564-76.124-11.247-113.341c-8.61-41.71-21.705-83.44-39.433-122.17
				c-37.027-80.892-101.383-146.206-176.854-192.134c-76.79-46.731-164.617-73.839-253.372-85.659
				c-41.511-5.528-83.451-7.554-125.299-5.918c-7.414,0.29-13.615,5.974-13.615,13.615c0,7.203,6.195,13.905,13.615,13.615
				c21.623-0.845,43.268-0.714,64.881,0.356c10.953,0.542,21.892,1.36,32.809,2.394c5.265,0.498,10.524,1.068,15.777,1.681
				c2.632,0.307,5.261,0.635,7.889,0.97c0.208,0.027,4.542,0.601,1.638,0.209c1.753,0.237,3.505,0.485,5.256,0.734
				c43.897,6.254,87.233,16.618,129.125,31.161c10.433,3.622,20.76,7.545,30.987,11.712c4.915,2.003,6.669,2.755,12.553,5.35
				c5.227,2.305,10.412,4.702,15.569,7.158c19.713,9.389,38.86,19.962,57.311,31.637c9.159,5.796,18.112,11.915,26.876,18.292
				c8.817,6.415,14.583,10.959,23.734,18.669c16.478,13.883,31.913,28.996,46.172,45.148
				c26.745,30.296,51.862,70.521,67.047,107.618c15.526,37.931,26.97,78.324,34.121,118.666c0.797,4.494,1.52,9.001,2.199,13.514
				c0.337,2.24,0.652,4.482,0.959,6.726c-0.474-3.458,0.032,0.312,0.101,0.853c0.19,1.487,0.37,2.975,0.547,4.463
				c1.096,9.2,1.912,18.432,2.501,27.677c1.147,18.023,1.252,36.108,0.4,54.145c-0.417,8.823-1.106,17.632-2.01,26.418
				c-0.43,4.178-0.929,8.349-1.469,12.515c-0.462,3.561,0.418-3.026-0.075,0.528c-0.143,1.035-0.294,2.068-0.444,3.102
				c-0.35,2.407-0.726,4.81-1.113,7.211c-2.734,16.967-6.446,33.771-11.003,50.34c-4.49,16.326-9.905,32.393-16.098,48.15
				c-0.739,1.879-1.495,3.751-2.257,5.621c-0.381,0.934-0.767,1.866-1.154,2.798c-1.327,3.198,1.161-2.721-0.192,0.464
				c-1.705,4.015-3.476,8.002-5.288,11.97c-3.475,7.61-7.169,15.119-11.027,22.542c-7.686,14.787-16.161,29.16-25.276,43.11
				c-4.546,6.957-9.281,13.789-14.158,20.517c-2.339,3.227-4.725,6.42-7.137,9.592c-0.381,0.5-2.466,3.21-0.298,0.404
				c-0.609,0.788-1.222,1.573-1.836,2.357c-1.431,1.831-2.88,3.647-4.335,5.459c-20.77,25.853-44.044,49.67-69.19,71.279
				c-6.283,5.399-12.701,10.639-19.219,15.751c-0.782,0.613-1.567,1.222-2.353,1.832c2.806-2.176,0.106-0.09-0.396,0.293
				c-1.579,1.207-3.168,2.401-4.76,3.591c-3.449,2.578-6.934,5.106-10.441,7.604c-13.482,9.6-27.413,18.565-41.689,26.935
				c-14.258,8.359-28.904,16.049-43.845,23.114c-3.582,1.694-7.186,3.34-10.803,4.956c-1.808,0.808-3.622,1.602-5.439,2.391
				c-0.908,0.394-1.818,0.784-2.728,1.173c-1.387,0.589-1.214,0.518,0.518-0.214c-0.608,0.256-1.217,0.51-1.826,0.764
				c-7.607,3.175-15.292,6.159-23.034,8.989c-30.878,11.288-62.8,19.71-95.226,25.129c-3.882,0.649-7.774,1.242-11.67,1.802
				c-0.974,0.14-1.948,0.274-2.923,0.408c3.841-0.529,0.447-0.063-0.281,0.032c-2.276,0.296-4.555,0.569-6.835,0.834
				c-8.14,0.946-16.306,1.671-24.482,2.218c-16.359,1.094-32.772,1.332-49.157,0.78c-8.206-0.276-16.403-0.788-24.583-1.488
				c-3.933-0.336-7.86-0.734-11.782-1.169c-1.963-0.218-3.924-0.454-5.885-0.697c-0.981-0.121-1.961-0.249-2.94-0.376
				c4.025,0.524-0.499-0.073-1.278-0.183c-16.389-2.311-32.643-5.55-48.685-9.614c-16.235-4.113-32.224-9.177-47.901-15.065
				c-3.801-1.428-7.578-2.919-11.339-4.449c-0.943-0.384-1.883-0.774-2.824-1.164c-3.224-1.337,2.709,1.156-0.506-0.211
				c-2.194-0.933-4.378-1.891-6.557-2.859c-7.84-3.482-15.567-7.215-23.196-11.137c-15.573-8.006-30.648-16.966-45.206-26.693
				c-7.459-4.984-14.756-10.208-21.919-15.607c-0.868-0.655-1.732-1.315-2.596-1.976c-2.915-2.229,2.205,1.719-0.695-0.54
				c-1.727-1.346-3.441-2.709-5.15-4.078c-3.731-2.989-7.408-6.046-11.05-9.143c-14.407-12.252-28.062-25.378-41.022-39.147
				c-6.723-7.143-13.224-14.492-19.55-21.988c-3.097-3.669-6.135-7.389-9.138-11.136c-1.516-1.892-3.015-3.799-4.507-5.711
				c-2.481-3.178,1.608,2.102-0.852-1.105c-0.994-1.296-1.979-2.599-2.962-3.903c-13.512-17.919-25.716-36.757-37.844-55.627
				c-15.017-23.365-28.94-47.435-41.59-72.163c-23.55-46.033-41.957-94.124-52.748-145.362c-5.159-24.495-7.811-45.906-8.618-71.384
				c-0.385-12.148-0.133-24.311,0.655-36.438c0.841-12.94,1.971-22.024,4.028-33.918c8.717-50.406,28.102-95.255,57.017-137.255
				c26.495-38.486,61.08-70.568,97.504-100.13c36.027-29.239,77.387-57.721,119.471-81.514
				c41.408-23.411,81.994-42.205,128.569-52.628c4.957-1.109,9.948-2.058,14.958-2.893c1.229-0.205,2.46-0.392,3.692-0.578
				c0.376-0.057,4.456-0.608,1.271-0.192c2.416-0.316,4.839-0.575,7.264-0.814c9.327-0.917,18.717-1.155,28.076-0.683
				c7.418,0.374,13.615-6.476,13.615-13.615C563.99,89.293,557.785,83.756,550.375,83.382L550.375,83.382z"/>
		</g>
	</g>
	<g>
		<g>
			<path d="M371.651,695.145c-13.131,14.611-23.983,32.582-22.718,52.925c1.084,17.443,10.521,32.429,21.311,45.589
				c11.404,13.909,24.944,25.924,37.475,38.779c5.764,5.913,11.883,12.581,16.455,18.774c5.331,7.221,8.798,14.518,12.075,21.912
				c16.331,36.847,30.126,75.023,40.476,113.982c5.157,19.414,9.419,39.182,11.664,59.159c1.94,17.26,2.645,35.189-0.695,52.321
				c-1.411,7.238,5.718,13.669,12.643,9.719c3.31-1.888,5.894-4.353,8.095-7.446c1.468-2.063,2.483-4.064,4.719-5.346
				c9.626-5.517,0.959-20.392-8.688-14.863c-3.301,1.892-5.879,4.355-8.073,7.446c-1.473,2.075-2.49,4.063-4.74,5.346
				c4.214,3.24,8.429,6.48,12.643,9.719c4.268-21.898,3.121-44.251,0.144-66.233c-3.39-25.035-9.393-49.638-16.59-73.831
				c-7.142-24.01-15.632-47.62-24.986-70.852c-7.261-18.034-13.787-36.611-25.635-52.136
				c-17.404-22.804-41.798-40.679-58.442-63.272c-7.357-9.986-12.506-20.463-12.751-31.494
				c-0.305-13.715,8.071-27.213,17.792-38.028C391.218,699.086,379.085,686.872,371.651,695.145L371.651,695.145z"/>
		</g>
	</g>
	<g>
		<g>
			<path d="M571.442,1096.748c10.447-61.069,47.996-116.436,38.35-180.395c-3.529,3.529-7.058,7.058-10.587,10.587
				c9.924,1.468,19.102,0.802,28.356-3.246c8.204-3.589,15.438-8.998,23.063-13.624c4.768-2.893,5.671-9.511,1.742-13.517
				c-3.53-3.6-6.536-7.302-8.82-11.815c-1.676-3.31-1.845-5.833-1.536-9.602c-0.137,1.667,0.28-1.125,0.297-1.2
				c0.198-0.871,0.482-1.72,0.763-2.566c0.265-0.799,0.924-2.171,1.82-3.798c2.058-3.738,4.337-6.566,6.96-9.624
				c12.578-14.665,27.672-27.145,34.674-45.716c7.773-20.616,7.876-44.868-3.125-64.26c-10.875-19.169-30.216-29.582-48.725-39.951
				c-31.157-17.453-62.81-36.684-97.756-45.501c-35.508-8.959-72.116-3.839-107.133,4.851c-10.769,2.672-6.199,19.272,4.576,16.598
				c23.839-5.916,48.135-10.194,72.782-8.771c19.75,1.14,38.926,7.034,56.919,15.034c23.328,10.372,44.857,24.045,67.528,35.663
				c16.259,8.332,33.648,19.865,40.253,37.667c5.352,14.422,2.729,29.867-1.919,44.093c-3.768,11.534-14.596,21.348-22.853,30.049
				c-8.709,9.178-18.06,19.086-21.365,31.656c-3.972,15.109,4.245,28.922,14.486,39.364c0.581-4.506,1.161-9.012,1.742-13.517
				c-11.867,7.199-23.313,17.331-38.156,15.135c-6.887-1.019-11.628,3.684-10.587,10.587c4.417,29.288-3.399,58.536-12.519,86.146
				c-9.294,28.138-20.81,55.747-25.831,85.097c-0.79,4.62,1.157,9.252,6.011,10.587
				C565.035,1103.908,570.651,1101.377,571.442,1096.748L571.442,1096.748z"/>
		</g>
	</g>
	<g>
		<g>
			<path d="M375.573,711.966c19.025-32.562-14.907-60.937-39.565-76.904c-28.458-18.428-60.218-31.397-91.191-44.908
				c-16.201-7.067-40.581-1.581-50.92-18.397c-4.255-6.92-6.225-15.175-9.2-22.676c-3.438-8.67-8.352-19.76-16.823-24.701
				c-13.252-7.731-29.748-10.872-44.618-13.775c-8.162-1.594-16.417-2.874-24.698-3.659c-5.476-0.519-10.971-0.806-16.105,1.425
				c-4.305,1.871-5.244,8.094-3.088,11.775c2.578,4.401,7.472,4.958,11.775,3.088c-2.684,1.166-1.594,0.658-0.809,0.496
				c-2.742,0.566-1.176,0.156-0.43,0.105c1.265-0.086,2.539-0.046,3.805-0.005c3.316,0.108,7.814,0.586,10.326,0.926
				c9.724,1.316,19.376,3.249,28.91,5.555c4.493,1.086,8.95,2.315,13.364,3.688c4.018,1.25,7.531,2.522,10.311,3.858
				c7.107,3.414,10.922,14.038,13.755,21.798c3.513,9.624,6.584,19.752,13.67,27.443c8.729,9.473,21.452,13.541,33.838,14.856
				c4.944,0.525,9.783,0.795,14.626,2.006c3.996,1,7.661,2.912,11.413,4.562c6.498,2.858,13.025,5.649,19.522,8.51
				c25.509,11.234,51.176,23.268,73.819,39.692c9.028,6.548,18.062,14.811,23.238,23.792c0.533,0.924,1.007,1.879,1.471,2.839
				c0.414,0.922,0.435,0.951,0.065,0.088c0.291,0.707,0.536,1.431,0.78,2.155c0.399,1.182,0.69,2.397,0.948,3.616
				c0.168,1.003,0.182,0.969,0.041-0.104c0.097,0.727,0.137,1.461,0.177,2.193c0.066,1.226,0,2.454-0.101,3.675
				c0.166-2.019-0.354,1.588-0.496,2.151c-0.772,3.06-0.871,3.066-2.673,6.15C355.099,712.882,369.978,721.542,375.573,711.966
				L375.573,711.966z"/>
		</g>
	</g>
	<g>
		<g>
			<path d="M417.113,668.115c-13.571-19.152-31.933-33.589-47.648-50.803c-7.792-8.535-14.218-18.037-18.924-28.609
				c-4.28-9.615-7.492-19.645-12.035-29.195c-0.689-1.449-1.384-2.895-2.066-4.347c-0.291-0.62-0.575-1.244-0.857-1.868
				c-0.895-1.983,0.68,1.707-0.07-0.154c-0.367-0.91-0.674-1.839-0.919-2.788c-0.186-0.719-0.219-2.191,0.054,0.724
				c-0.189-2.017-0.443,1.847-0.178,0.599c-0.055,0.259-0.803,1.468-0.868,1.535c1.052-1.1-1.835,1.286-0.493,0.337
				c0.385-0.272,0.799-0.502,1.208-0.734c0.471-0.268,0.963-0.499,1.452-0.732c1.873-0.897-1.834,0.724,0.276-0.134
				c1.723-0.701,3.483-1.313,5.238-1.928c22.871-8.011,47.789-16.248,71.941-8.727c5.248,1.634,10.015,4.42,14.508,7.538
				c3.864,2.682,9.538,0.719,11.775-3.088c9.611-16.355,11.369-34.658,0.1-50.644c-9.868-13.998-24.55-23.532-36.635-35.411
				c-13.055-12.833-19.052-27.605-14.336-46.559c5.823-23.401,22.887-43.716,40.813-59.081c13.89-11.905,30.254-20.33,47.253-25.326
				c8.71-2.56,19.014-4.54,19.413-15.698c0.167-4.664-1.82-9.564-3.319-13.886c-2.994-8.633-6.101-17.221-8.955-25.902
				c-5.901-17.954-5.71-36.714-7.202-55.941c-1.874-24.15-2.703-56.627-27.892-68.735c-26.627-12.799-57.56,1.738-84.74-8.69
				c-4.385-1.683-9.435,1.821-10.587,6.011c-1.336,4.858,1.635,8.908,6.011,10.587c21.349,8.191,44.472,2.808,66.619,4.057
				c8.952,0.505,17.22,2.991,23.24,9.887c4.595,5.265,5.759,13.114,7.15,20.715c3.667,20.049,3.624,40.658,5.672,60.898
				c0.954,9.43,2.631,18.179,5.588,27.175c2.778,8.453,5.826,16.809,8.741,25.214c0.78,2.248,1.536,4.508,2.142,6.81
				c0.213,0.809,0.693,3.938,0.247,0.514c0.143,1.099-0.333,3.482,0.269,0.088c-0.124,0.698-0.726,1.866,0.567-1.134
				c-0.268,0.622-1.173,1.649,0.851-0.961c-1.231,1.587,1.848-1.135,0.392-0.237c-1.932,1.191,0.563-0.149,0.066,0.038
				c-0.87,0.328-1.766,0.588-2.658,0.849c-14.687,4.295-28.463,9.686-41.728,17.466c-21.692,12.724-40.251,32.319-53.073,53.832
				c-11.574,19.418-18.62,43.758-9.884,65.622c7.878,19.715,25.829,31.846,40.921,45.675c3.303,3.026,6.45,6.218,9.314,9.664
				c0.614,0.739,1.807,2.447,2.846,4.113c1.44,2.309,1.896,3.325,2.492,4.971c3.002,8.298,0.639,16.478-4.563,25.33
				c3.925-1.029,7.85-2.058,11.775-3.088c-11.888-8.25-25.537-12.17-39.912-12.78c-13.408-0.57-29.021,1.501-41.688,6.012
				c-8.163,2.907-16.583,5.293-24.575,8.657c-5.346,2.251-11.117,5.323-12.442,11.561c-1.298,6.109,1.561,11.724,4.087,17.099
				c3.901,8.3,7.623,16.513,10.672,25.17c8.142,23.12,24.711,40.6,42.079,57.206c9.806,9.375,19.736,18.8,27.609,29.911
				c2.707,3.82,7.46,5.615,11.775,3.088C417.806,677.676,419.83,671.95,417.113,668.115L417.113,668.115z"/>
		</g>
	</g>
	<g>
		<g>
			<path d="M425.682,684.277c3.199,0,6.397,0,9.596,0c4.692,0,8.607-3.915,8.607-8.607c0-4.692-3.915-8.607-8.607-8.607
				c-3.199,0-6.397,0-9.596,0c-4.692,0-8.607,3.915-8.607,8.607C417.076,680.362,420.991,684.277,425.682,684.277L425.682,684.277z"
				/>
		</g>
	</g>
	<g>
		<g>
			<path d="M406.507,684.277c6.392,0,12.783,0,19.175,0c11.1,0,11.1-17.213,0-17.213c-6.392,0-12.783,0-19.175,0
				C395.407,667.064,395.407,684.277,406.507,684.277L406.507,684.277z"/>
		</g>
	</g>
	<g>
		<g>
			<path d="M986.366,919.833c-6.431-19.1-15.213-37.408-23.725-55.644c-9.983-21.388-20.129-42.721-28.934-64.63
				c-8.448-21.019-15.895-42.748-19.321-65.209c-1.402-9.193-1.628-18.678-0.616-27.92c1.184-10.816,2.155-22.564,4.586-33.662
				c3.983-18.181,11.114-35.302,22.134-50.35c8.947-12.218,21.419-22.662,34.11-30.963c28.007-18.319,59.918-29.595,89.085-45.823
				c17.223-9.583,33.528-21.041,47.537-34.958c7.882-7.831-4.292-20-12.172-12.172c-24.488,24.328-55.958,38.966-86.98,53.578
				c-29.769,14.021-60.063,29.302-81.404,55.161c-12.123,14.69-20.62,31.716-26.066,49.928c-3.282,10.976-5.187,22.289-6.561,33.645
				c-1.255,10.371-2.381,20.952-1.978,31.415c0.851,22.069,7.104,43.802,14.438,64.489c8.129,22.926,18.197,45.151,28.428,67.199
				c10.765,23.199,22.664,46.204,30.842,70.491C973.29,934.871,989.918,930.383,986.366,919.833L986.366,919.833z"/>
		</g>
	</g>
	<g>
		<g>
			<path d="M870.789,345.933c-23.655,30.973-41.206,71.12-33.388,110.735c5.473,27.729,27.84,50.323,57.283,48.514
				c18.523-1.138,35.007-10.598,49.108-22.056c21.355-17.352,37.457-41.166,50.76-64.963c-4.954,0-9.909,0-14.863,0
				c9.5,21.912,23.202,45.058,48.953,48.367c9.453,1.215,19.389-1.385,28.287-4.354c10.998-3.67,21.591-8.519,32.341-12.836
				c4.35-1.747,7.362-5.675,6.011-10.587c-1.138-4.137-6.227-7.762-10.587-6.011c-9.827,3.946-19.525,8.234-29.485,11.84
				c-8.368,3.03-15.592,5.104-23.336,4.966c-0.811-0.014-1.621-0.08-2.429-0.147c-1.034-0.113-1.069-0.113-0.107-0.001
				c-0.528-0.087-1.054-0.186-1.578-0.299c-0.79-0.159-1.566-0.377-2.341-0.594c-0.294-0.082-3.264-1.162-1.78-0.533
				c-4.075-1.727-6.553-3.638-9.354-6.273c-9.171-8.629-14.807-20.867-19.732-32.227c-2.625-6.054-11.973-5.17-14.863,0
				c-12.361,22.112-26.898,43.325-46.23,59.942c-6.513,5.598-13.807,10.308-21.591,13.935c-1.875,0.874-5.938,2.311-8.99,3.147
				c-1.619,0.444-3.264,0.786-4.915,1.09c-0.193,0.036-2.858,0.4-0.917,0.161c-1.044,0.129-2.094,0.202-3.143,0.266
				c-1.529,0.094-3.062,0.081-4.592,0.03c-0.702-0.024-4.849-0.499-2.871-0.203c-3.069-0.459-6.065-1.322-8.956-2.438
				c1.824,0.704-1.801-0.892-2.398-1.208c-1.24-0.657-2.428-1.406-3.595-2.183c-0.586-0.39-1.151-0.809-1.717-1.227
				c1.629,1.206-0.232-0.234-0.461-0.427c-1.274-1.078-2.46-2.257-3.606-3.468c-2.54-2.683-2.3-2.457-4.462-5.868
				c-0.82-1.293-1.556-2.638-2.265-3.994c-0.899-1.719-1.611-3.438-1.719-3.713c-1.223-3.094-2.142-6.301-2.898-9.538
				c-1.029-4.401-1.174-5.913-1.479-10.054c-2.372-32.201,13.369-63.702,32.768-89.103c2.855-3.738,0.586-9.624-3.088-11.775
				C878.139,340.254,873.63,342.212,870.789,345.933L870.789,345.933z"/>
		</g>
	</g>
	<g>
		<g>
			<path d="M857.764,376.736c17.302,5.567,36.586,4.84,54.54,4.85c17.86,0.009,37.154-1.311,54.392,4.235
				c5.358,1.724,10.909-2.882,10.895-8.299c-0.163-59.186-16.231-116.928-46.565-167.733c-5.683-9.518-20.568-0.867-14.863,8.688
				c28.821,48.271,44.06,102.8,44.215,159.045c3.632-2.766,7.263-5.533,10.895-8.299c-17.302-5.567-36.586-4.84-54.539-4.85
				c-17.861-0.009-37.154,1.311-54.392-4.235C851.743,356.728,847.242,373.351,857.764,376.736L857.764,376.736z"/>
		</g>
	</g>
	<g>
		<g>
			<path d="M526.494,131.668c25.092-4.015,49.843,0.697,72.892,10.913c10.581,4.69,20.749,10.261,30.92,15.764
				c4.735,2.562,9.48,5.107,14.271,7.563c4.475,2.294,8.825,3.482,13.015,5.547c1.578,0.778,3.105,1.656,4.606,2.573
				c0.628,0.384,3.968,2.765,2.722,1.792c2.285,1.786,4.336,3.854,6.193,6.077c1.352,1.617-1.099-1.495,0.133,0.161
				c0.348,0.468,0.678,0.948,1.008,1.429c0.637,0.927,1.228,1.885,1.809,2.848c1.188,1.969,2.264,4.005,3.377,6.017
				c5.662,10.239,13.531,17.135,24.984,20.242c12.809,3.475,26.833,2.772,39.913,1.839c13.963-0.996,27.094-2.725,40.492-6.97
				c25.077-7.944,49.005-19.563,72.497-31.281c9.934-4.956,1.213-19.802-8.688-14.863c-16.661,8.311-33.457,16.388-50.785,23.226
				c-9.997,3.945-20.196,7.49-30.661,9.978c-9.782,2.326-20.192,2.672-30.765,3.168c-5.226,0.245-10.462,0.261-15.687-0.004
				c-4.581-0.233-6.692-0.487-10.972-1.496c-1.46-0.344-2.892-0.792-4.306-1.289c-0.363-0.127-2.47-1.052-0.427-0.145
				c-0.571-0.254-1.126-0.544-1.679-0.834c-1.026-0.538-1.997-1.175-2.94-1.846c2.083,1.483-0.897-0.882-1.451-1.447
				c-0.485-0.495-2.614-3.207-0.929-0.969c-0.603-0.801-1.151-1.642-1.687-2.489c-1.188-1.875-2.231-3.842-3.299-5.787
				c-2.564-4.672-5.439-9.085-8.991-13.081c-6.487-7.298-15.311-11.877-24.255-15.411c-13.288-5.251-25.57-13.287-38.322-19.735
				c-13.853-7.005-28.288-13.05-43.425-16.636c-17.863-4.232-36.077-4.344-54.141-1.454c-4.639,0.742-7.151,6.445-6.011,10.587
				C517.253,130.548,521.866,132.409,526.494,131.668L526.494,131.668z"/>
		</g>
	</g>
	<g>
		<g>
			<path d="M166.611,304.542c-3.612,35.38-23.395,66.161-36.228,98.606c-6.721,16.992-10.375,34.18-11.988,52.344
				c-1.657,18.659-2.333,37.827-10.662,54.994c-2.227,4.59,4.625,8.621,6.862,4.011c8.196-16.894,9.816-35.356,11.313-53.81
				c1.568-19.339,5.101-37.302,12.139-55.427c12.991-33.458,32.793-64.282,36.512-100.719
				C175.078,299.445,167.126,299.496,166.611,304.542L166.611,304.542z"/>
		</g>
	</g>
	<g>
		<g>
			<path d="M198.449,274.855c4.198,53.557-32.661,99.159-49.405,147.421c-5.374,15.491-9.149,31.632-13.179,47.508
				c-3.266,12.868-6.845,25.79-9.314,38.843c-0.11,0.582-0.213,1.177-0.246,1.767c-0.288,5.123,7.661,5.095,7.947,0
				c-0.096,1.71,0.369-1.641,0.535-2.4c0.587-2.68,1.215-5.35,1.845-8.02c1.867-7.923,3.817-15.828,5.798-23.723
				c4.147-16.532,8.251-33.155,13.457-49.393c7.411-23.112,19.88-44.672,29.817-66.748c10.817-24.032,20.547-49.478,21.031-76.156
				c0.055-3.037-0.101-6.073-0.338-9.099C205.999,269.781,198.049,269.742,198.449,274.855L198.449,274.855z"/>
		</g>
	</g>
	<g>
		<g>
			<path d="M251.493,232.405c-1.053,23.977-8.163,47.298-16.435,69.667c-8.889,24.037-19.807,47.267-30.47,70.551
				c-10.714,23.396-20.739,46.985-29.058,71.354c-9.509,27.854-17.298,56.26-25.742,84.445c2.602,0.352,5.203,0.704,7.805,1.056
				c0.22-3.63,1.897-6.928,2.121-10.609c0.31-5.121-7.638-5.091-7.947,0c-0.22,3.63-1.897,6.928-2.121,10.609
				c-0.279,4.604,6.553,5.235,7.805,1.056c8.268-27.595,15.971-55.367,25.146-82.683c8.52-25.367,19.046-49.818,30.184-74.123
				c10.745-23.447,21.563-46.892,30.515-71.098c8.331-22.526,15.085-46.107,16.145-70.226
				C259.665,227.28,251.717,227.301,251.493,232.405L251.493,232.405z"/>
		</g>
	</g>
	<g>
		<g>
			<path d="M289.694,196.333c2.591,49.59-16.083,97.545-36.516,141.781c-21.535,46.622-47.202,91.376-65.82,139.321
				c-7.203,18.549-13.134,37.675-16.35,57.341c-0.819,5.012,6.838,7.161,7.663,2.113c7.925-48.476,31.233-93.299,52.979-136.77
				c22.784-45.544,46.934-91.486,59.315-141.197c5.084-20.411,7.775-41.547,6.676-62.59
				C297.374,191.235,289.426,191.209,289.694,196.333L289.694,196.333z"/>
		</g>
	</g>
	<g>
		<g>
			<path d="M355.461,158.118c-1.494,24.399-8.146,48.2-16.246,71.155c-9.087,25.752-20.525,50.631-32.495,75.152
				c-11.613,23.79-23.948,47.217-35.917,70.827c-12.678,25.009-23.324,50.867-34.02,76.774
				c-15.109,36.598-29.825,73.382-46.275,109.407c-2.112,4.626,4.736,8.668,6.862,4.011c12.357-27.06,23.729-54.558,35.047-82.064
				c11.613-28.221,22.243-57.254,35.586-84.712c23.012-47.357,48.898-93.268,69.11-141.96
				c13.014-31.351,24.205-64.472,26.293-98.589C363.722,152.998,355.773,153.028,355.461,158.118L355.461,158.118z"/>
		</g>
	</g>
	<g>
		<g>
			<path d="M398.059,157.062c-12.413,55.221-36.432,107.429-59.939,158.632c-22.021,47.965-42.77,96.525-67.451,143.193
				c-11.068,20.927-22.158,41.88-31.564,63.622c-8.269,19.111-15.524,39.13-17.329,60.016c-0.442,5.108,7.509,5.065,7.947,0
				c1.978-22.884,11.09-44.968,20.539-65.656c10.683-23.388,23.107-45.936,35.034-68.699c11.387-21.732,21.082-44.058,31.159-66.407
				c12.042-26.706,24.574-53.188,36.657-79.875c20.856-46.063,41.48-93.194,52.612-142.712
				C406.844,154.183,399.183,152.063,398.059,157.062L398.059,157.062z"/>
		</g>
	</g>
	<g>
		<g>
			<path d="M365.121,420.567c-42.418,53.941-65.101,119.639-98.228,179.059c-2.498,4.48,4.367,8.487,6.862,4.011
				c32.75-58.744,55.054-124.129,96.985-177.451C373.87,422.206,368.287,416.54,365.121,420.567L365.121,420.567z"/>
		</g>
	</g>
	<g>
		<g>
			<path d="M427.777,165.558c-27.876,113.998-89.43,215.881-143.723,318.687c-18.148,34.363-35.694,69.081-51.104,104.77
				c-2.009,4.653,4.835,8.705,6.862,4.011c46.19-106.972,110.485-205.008,156.653-312.01
				c15.846-36.725,29.467-74.461,38.975-113.345C436.657,162.693,428.994,160.582,427.777,165.558L427.777,165.558z"/>
		</g>
	</g>
	<g>
		<g>
			<path d="M449.382,191.963c6.247,8.717,4.48,20.336,2.03,30.08c-3.818,15.186-10.812,29.535-17.99,43.369
				c-16.255,31.328-35.979,60.685-52.706,91.746c-4.398,8.167-8.577,16.522-11.749,25.252c-2.154,5.928-3.835,12.375-2.747,18.696
				c0.868,5.043,8.526,2.898,7.663-2.113c-0.479-2.78,0.495-7.329,1.552-10.878c1.668-5.598,4.093-10.95,6.626-16.199
				c6.949-14.397,15.226-28.157,23.385-41.889c17.846-30.033,37.246-60.018,49.516-92.897c5.474-14.667,11.375-35.094,1.281-49.178
				C453.288,183.826,446.39,187.788,449.382,191.963L449.382,191.963z"/>
		</g>
	</g>
	<g>
		<g>
			<path d="M460.001,268.593c-10.48,21.525-15.812,45.947-29.734,65.775c-2.953,4.205,3.942,8.171,6.862,4.011
				c13.823-19.689,19.63-45.025,29.734-65.775C469.096,268.016,462.244,263.986,460.001,268.593L460.001,268.593z"/>
		</g>
	</g>
	<g>
		<g>
			<path d="M369.936,462.88c0.373-0.199,0.765-0.349,1.176-0.45c-2.237,0.706-2.44-3.899-2.519-1.846
				c-0.033,0.854-0.629,1.981-0.932,2.78c-1.146,3.019-2.837,5.886-4.391,8.707c-3.56,6.461-7.119,12.748-10.274,19.424
				c-9.991,21.145-21.246,41.709-27.095,64.512c-1.274,4.968,6.39,7.074,7.663,2.113c3.608-14.065,9.232-27.339,15.488-40.406
				c5.355-11.185,10.357-22.777,16.486-33.553c3.794-6.671,8.248-13.398,10.514-20.791c2.328-7.595-4.03-10.207-10.126-7.351
				C361.288,458.191,365.325,465.041,369.936,462.88L369.936,462.88z"/>
		</g>
	</g>
	<g>
		<g>
			<path d="M388.464,471.513c-16.83,14.794-26.277,37.504-30.726,59.031c-1.034,5.001,6.626,7.13,7.663,2.113
				c4.196-20.302,12.795-41.559,28.682-55.524C397.939,473.742,392.296,468.144,388.464,471.513L388.464,471.513z"/>
		</g>
	</g>
	<g>
		<g>
			<path d="M399.081,494.832c-9.266,7.258-15.494,17.895-18.016,29.335c-1.101,4.994,6.56,7.116,7.663,2.113
				c2.266-10.277,7.659-19.317,15.972-25.829C408.732,497.293,403.065,491.711,399.081,494.832L399.081,494.832z"/>
		</g>
	</g>
	<g>
		<g>
			<path d="M322.073,550.824c-8.649,17.404-15.476,35.572-21.636,53.985c-1.63,4.874,6.046,6.947,7.663,2.113
				c5.944-17.768,12.488-35.291,20.835-52.087C331.208,550.261,324.354,546.234,322.073,550.824L322.073,550.824z"/>
		</g>
	</g>
	<g>
		<g>
			<path d="M323.793,600.575c-2.402,11.593-6.353,22.779-12.353,33.01c-2.598,4.431,4.272,8.428,6.862,4.011
				c6.325-10.787,10.621-22.682,13.154-34.909C332.493,597.687,324.833,595.558,323.793,600.575L323.793,600.575z"/>
		</g>
	</g>
	<g>
		<g>
			<path d="M342.895,619.682c-2.139,6.357-4.444,12.471-8.097,18.137c-2.786,4.321,4.096,8.301,6.862,4.011
				c4.011-6.22,6.55-13.056,8.898-20.035C352.197,616.924,344.52,614.852,342.895,619.682L342.895,619.682z"/>
		</g>
	</g>
	<g>
		<g>
			<path d="M363.001,645.511c-6.482,6.579-11.365,13.984-13.744,22.975c-1.313,4.96,6.353,7.063,7.663,2.113
				c2.039-7.704,6.148-13.833,11.7-19.468C372.218,647.478,366.601,641.856,363.001,645.511L363.001,645.511z"/>
		</g>
	</g>
	<g>
		<g>
			<path d="M375.74,662.476c-9.584,9.948-14.907,23.003-21.857,34.741c-2.617,4.42,4.254,8.416,6.862,4.011
				c6.576-11.106,11.552-23.726,20.614-33.132C384.914,664.406,379.301,658.78,375.74,662.476L375.74,662.476z"/>
		</g>
	</g>
	<g>
		<g>
			<path d="M297.641,620.739c0.031-0.844-0.226,0.958-0.016,0.231c-0.285,0.989-0.31,0.673-0.078,0.323
				c-0.787,1.186-0.012,0.126,0.282-0.182c1.24-1.298,1.866-2.835,1.933-4.628c0.081-2.166-1.869-3.974-3.974-3.974
				c-2.228,0-3.892,1.81-3.973,3.974c-0.031,0.836,0.227-0.964,0.016-0.243c0.291-0.995,0.311-0.678,0.078-0.331
				c0.798-1.19,0.008-0.126-0.282,0.179c-1.242,1.306-1.866,2.85-1.933,4.649c-0.08,2.166,1.868,3.974,3.974,3.974
				C295.894,624.712,297.56,622.903,297.641,620.739L297.641,620.739z"/>
		</g>
	</g>
	<g>
		<g>
			<path d="M325.758,593.133c0,0.736-0.003,1.473-0.015,2.209c-0.006,0.32-0.018,0.64-0.035,0.96c0,0.003-0.162,1.431-0.036,0.628
				c-0.026,0.168-0.46,1.569-0.14,0.826c-0.103,0.221-0.22,0.435-0.35,0.642c-0.543,0.927,0.435-0.425-0.368,0.424
				c-3.519,3.72,2.091,9.349,5.619,5.619c3.038-3.211,3.269-7.095,3.271-11.308C333.707,588.009,325.76,588.009,325.758,593.133
				L325.758,593.133z"/>
		</g>
	</g>
	<g>
		<g>
			<path d="M366.486,646.875c0.725-0.687,1.366-0.969,2.29-1.328c1.826-0.708,3.641-1.432,5.402-2.292
				c1.945-0.95,2.458-3.674,1.426-5.437c-1.154-1.971-3.49-2.376-5.436-1.425c-3.2,1.563-6.647,2.349-9.301,4.863
				C357.139,644.787,362.768,650.397,366.486,646.875L366.486,646.875z"/>
		</g>
	</g>
	<g>
		<g>
			<path d="M382.806,658.648c1.409,0,2.817,0,4.226,0c2.166,0,3.974-1.807,3.974-3.974c0-2.166-1.807-3.973-3.974-3.973
				c-1.409,0-2.817,0-4.226,0c-2.166,0-3.974,1.807-3.974,3.973C378.833,656.841,380.64,658.648,382.806,658.648L382.806,658.648z"
				/>
		</g>
	</g>
	<g>
		<g>
			<path d="M382.523,658.909c0-0.699,0-1.398,0-2.098c0-2.166-1.807-3.973-3.974-3.973c-2.166,0-3.973,1.807-3.973,3.973
				c0,0.699,0,1.398,0,2.098c0,2.166,1.807,3.974,3.973,3.974C380.716,662.882,382.523,661.075,382.523,658.909L382.523,658.909z"/>
		</g>
	</g>
	<g>
		<g>
			<path d="M394.203,669.635c-7.997,16.161-14.44,33.094-23.325,48.81c-2.526,4.467,4.341,8.471,6.862,4.011
				c8.885-15.716,15.328-32.649,23.325-48.81C403.329,669.069,396.476,665.041,394.203,669.635L394.203,669.635z"/>
		</g>
	</g>
	<g>
		<g>
			<path d="M421.386,679.082c-15.06,39.054-24.457,80.077-40.321,118.834c-1.942,4.744,5.749,6.788,7.663,2.113
				c15.864-38.757,25.261-79.78,40.321-118.834C430.896,676.405,423.21,674.352,421.386,679.082L421.386,679.082z"/>
		</g>
	</g>
	<g>
		<g>
			<path d="M452.124,670.974c-17.207,18.699-23.627,44.496-28.581,68.734c-5.191,25.397-7.669,52.611-18.737,76.35
				c-2.151,4.614,4.698,8.652,6.862,4.011c10.609-22.755,13.724-48.289,18.44-72.707c4.727-24.474,10.203-51.824,27.636-70.769
				C461.207,672.83,455.601,667.196,452.124,670.974L452.124,670.974z"/>
		</g>
	</g>
	<g>
		<g>
			<path d="M485.462,669.635c-17.505,24.667-30.644,52.202-42.209,80.057c-11.965,28.82-21.901,58.506-30.35,88.536
				c-1.391,4.943,6.277,7.038,7.663,2.113c8.154-28.981,17.755-57.567,29.088-85.462c11.493-28.291,24.953-56.267,42.67-81.232
				C495.298,669.456,488.402,665.493,485.462,669.635L485.462,669.635z"/>
		</g>
	</g>
	<g>
		<g>
			<path d="M516.885,672.728c-6.064,33.187-20.036,64.595-35.679,94.274c-16.049,30.45-34.745,59.572-55.165,87.266
				c-3.046,4.131,3.856,8.088,6.862,4.011c20.434-27.714,39.019-56.846,55.165-87.266c16.01-30.163,30.309-62.402,36.48-96.172
				C525.464,669.831,517.805,667.691,516.885,672.728L516.885,672.728z"/>
		</g>
	</g>
	<g>
		<g>
			<path d="M548.709,683.337c-14.688,76.52-57.289,142.189-90.857,211.242c-2.231,4.588,4.622,8.62,6.862,4.011
				c33.856-69.645,76.845-135.966,91.659-213.141C557.333,680.443,549.674,678.307,548.709,683.337L548.709,683.337z"/>
		</g>
	</g>
	<g>
		<g>
			<path d="M576.15,694.989c-0.195,47.575-17.781,93.672-38.027,136.031c-10.476,21.918-22.167,43.239-34.252,64.304
				c-5.752,10.026-11.62,19.984-17.511,29.929c-2.807,4.739-5.621,9.473-8.431,14.21c-1.355,2.283-5.637,11.515-7.227,11.774
				c1.289,0.341,2.577,0.681,3.866,1.022c-0.034-0.031-0.067-0.063-0.101-0.094c0.341,1.289,0.681,2.577,1.022,3.866
				c-0.208,1.005,1.238-1.253,1.668-1.718c0.589-0.637,1.195-1.259,1.807-1.873c3.618-3.634-2-9.255-5.619-5.619
				c-1.629,1.636-3.319,3.32-4.634,5.227c-2.289,3.32-0.067,7.53,4.104,6.852c4.401-0.715,6.286-5.815,8.261-9.155
				c3.264-5.521,6.543-11.034,9.816-16.551c13.669-23.038,27.201-46.162,39.763-69.827c24.856-46.822,47.47-97.285,52.599-150.618
				c0.568-5.903,0.818-11.832,0.842-17.76C584.118,689.863,576.171,689.865,576.15,694.989L576.15,694.989z"/>
		</g>
	</g>
	<g>
		<g>
			<path d="M608.129,719.394c-5.807,29.591-16.663,57.795-29.558,84.967c-12.891,27.163-28.394,52.89-42.266,79.526
				c-6.839,13.131-14.142,26.014-20.663,39.31c-5.425,11.061-9.534,22.566-14.094,33.98c-3.121,7.813-6.49,15.974-7.26,24.426
				c-0.679,7.446,5.127,10.446,11.456,7.529c4.65-2.143,0.609-8.991-4.011-6.862c-2.005,0.924-0.045-0.356,0.563,1.37
				c-0.351-0.997-0.061-2.357,0.1-3.367c0.583-3.674,1.799-7.268,2.99-10.779c2.677-7.895,5.926-15.625,8.848-23.43
				c4.761-12.717,11.12-24.809,17.499-36.771c6.694-12.553,13.176-25.244,20.16-37.634c26.67-47.312,53.34-96.332,63.901-150.153
				C616.775,716.501,609.116,714.368,608.129,719.394L608.129,719.394z"/>
		</g>
	</g>
	<g>
		<g>
			<path d="M633.592,740.616c-4.274,23.844-14.222,46.441-24.776,68.088c-11.799,24.2-25.229,47.577-38.665,70.893
				c-12.916,22.413-25.516,44.464-35.025,68.593c-9.882,25.073-17.625,51.006-28.852,75.541c-3.041,6.646-6.429,13.13-10.208,19.387
				c-2.657,4.398,4.216,8.39,6.862,4.011c13.267-21.962,21.512-46.605,30.138-70.636c4.685-13.05,9.428-26.091,14.909-38.831
				c5.158-11.989,11.393-23.287,17.852-34.605c25.532-44.737,54.041-89.403,69.973-138.73c2.284-7.072,4.144-14.282,5.456-21.598
				C642.154,737.718,634.496,735.577,633.592,740.616L633.592,740.616z"/>
		</g>
	</g>
	<g>
		<g>
			<path d="M661.454,772.064c0.186-0.179,1.1-0.796,0.166-0.186c-1.744-0.989-3.489-1.978-5.233-2.967
				c-0.022,0.395-0.005,0.314,0.052-0.244c-0.142,0.86-0.437,1.702-0.707,2.527c-0.965,2.945-2.213,5.804-3.448,8.643
				c-3.416,7.847-7.133,15.566-10.869,23.264c-9.282,19.126-18.818,37.998-30.143,56.023c-15.548,24.745-32.765,48.465-45.774,74.72
				c-13.382,27.008-24.08,55.354-35.426,83.249c-7.94,19.522-16.113,38.965-25.509,57.84c-2.276,4.572,4.578,8.599,6.862,4.011
				c26.708-53.654,42.843-112.519,73.577-164.158c14.949-25.118,32.436-48.638,46.536-74.276
				c8.525-15.5,16.113-31.714,23.576-47.749c3.149-6.766,6.624-13.674,8.719-20.861c1.671-5.731-3.251-10.018-7.998-5.456
				C652.134,770.001,657.76,775.614,661.454,772.064L661.454,772.064z"/>
		</g>
	</g>
	<g>
		<g>
			<path d="M600.034,924.283c-15.363,30.858-27.404,63.28-41.862,94.56c-7.423,16.059-15.396,31.913-24.748,46.945
				c-7.758,12.469-16.703,24.565-28.239,33.802c-4.001,3.203,1.661,8.789,5.619,5.619c11.38-9.112,20.246-21.038,28.092-33.215
				c9.79-15.194,17.887-31.462,25.524-47.819c14.785-31.67,26.895-64.585,42.476-95.881
				C609.172,923.722,602.318,919.695,600.034,924.283L600.034,924.283z"/>
		</g>
	</g>
	<g>
		<g>
			<path d="M549.625,1095.938c6.623-10.91,14.57-20.938,21.206-31.839c2.673-4.39-4.202-8.38-6.862-4.011
				c-6.637,10.901-14.584,20.929-21.206,31.839C540.096,1096.32,546.97,1100.311,549.625,1095.938L549.625,1095.938z"/>
		</g>
	</g>
	<g>
		<g>
			<path d="M516.36,112.746c8.225-6.064,17.194-10.625,26.648-14.45c4.687-1.896,2.641-9.586-2.113-7.663
				c-10.099,4.085-19.751,8.766-28.547,15.251C508.272,108.889,512.229,115.791,516.36,112.746L516.36,112.746z"/>
		</g>
	</g>
	<g>
		<g>
			<path d="M528.135,117.403c10.605-4.251,21.213-8.495,31.823-12.732c4.699-1.876,2.651-9.565-2.113-7.663
				c-10.611,4.237-21.218,8.481-31.823,12.732C521.327,111.622,523.374,119.311,528.135,117.403L528.135,117.403z"/>
		</g>
	</g>
	<g>
		<g>
			<path d="M565.968,120.614c9.74-9.497,21.506-15.829,34.312-20.198c4.821-1.645,2.751-9.323-2.113-7.663
				c-14.101,4.811-27.09,11.782-37.818,22.242C556.675,118.578,562.299,124.193,565.968,120.614L565.968,120.614z"/>
		</g>
	</g>
	<g>
		<g>
			<path d="M599.928,122.758c8.883-8.573,20.888-13.56,32.191-18.087c4.696-1.881,2.649-9.57-2.113-7.663
				c-12.628,5.058-25.769,10.548-35.697,20.131C590.615,120.703,596.241,126.316,599.928,122.758L599.928,122.758z"/>
		</g>
	</g>
	<g>
		<g>
			<path d="M626.011,132.542c8.401-12.168,21.899-19.529,35.811-23.637c4.904-1.448,2.814-9.118-2.113-7.663
				c-16.014,4.729-30.935,13.349-40.56,27.289C616.228,132.76,623.12,136.728,626.011,132.542L626.011,132.542z"/>
		</g>
	</g>
	<g>
		<g>
			<path d="M640.234,143.963c16.005-15.642,38.023-23.304,56.496-35.459c4.261-2.803,0.284-9.688-4.011-6.862
				c-19.087,12.558-41.551,20.525-58.104,36.701C630.944,141.93,636.568,147.546,640.234,143.963L640.234,143.963z"/>
		</g>
	</g>
	<g>
		<g>
			<path d="M664.196,153.77c12.908-16.876,31.183-28.652,49.497-38.888c4.473-2.5,0.467-9.365-4.011-6.862
				c-19.63,10.971-38.547,23.695-52.348,41.739C654.219,153.831,661.127,157.781,664.196,153.77L664.196,153.77z"/>
		</g>
	</g>
	<g>
		<g>
			<path d="M683.311,170.756c14.922-21.029,37.407-40.19,63.393-44.863c5.038-0.906,2.897-8.564-2.113-7.663
				c-28.022,5.04-52.094,25.899-68.142,48.515C673.476,170.935,680.372,174.898,683.311,170.756L683.311,170.756z"/>
		</g>
	</g>
	<g>
		<g>
			<path d="M691.793,191.963c9.408-13.849,23.03-24.41,36.896-33.494c14.674-9.614,30.454-17.562,46.546-24.501
				c4.694-2.024,0.642-8.869-4.011-6.862c-16.611,7.163-32.743,15.458-47.884,25.378c-14.588,9.558-28.536,20.936-38.409,35.469
				C682.043,192.204,688.932,196.175,691.793,191.963L691.793,191.963z"/>
		</g>
	</g>
	<g>
		<g>
			<path d="M722.191,199.764c34.543-19.521,66.358-43.666,101.847-61.542c4.578-2.306,0.553-9.161-4.011-6.862
				c-35.489,17.875-67.305,42.02-101.847,61.542C713.72,195.423,717.724,202.289,722.191,199.764L722.191,199.764z"/>
		</g>
	</g>
	<g>
		<g>
			<path d="M781.597,197.628c21.897-15.288,44.474-29.604,67.903-42.433c4.495-2.461,0.486-9.324-4.011-6.862
				c-23.43,12.829-46.006,27.145-67.903,42.433C773.417,193.676,777.383,200.57,781.597,197.628L781.597,197.628z"/>
		</g>
	</g>
	<g>
		<g>
			<path d="M875.092,363.695c2.404-0.143,5.094-1.715,7.445-1.335c2.499,0.404,4.036,2.667,6.357,3.306
				c0.997,0.274,2.157,0.142,3.177,0.142c2.166,0,3.974-1.807,3.974-3.974c0-1.411,0-2.822,0-4.234
				c-1.677,1.277-3.353,2.554-5.03,3.832c10.032,3.868,19.216,4.131,29.695,2.121c5.03-0.965,2.894-8.624-2.113-7.663
				c-9.128,1.751-16.773,1.232-25.469-2.121c-2.453-0.946-5.03,1.443-5.03,3.832c0,1.411,0,2.822,0,4.234
				c1.324-1.324,2.649-2.649,3.973-3.973c-2.619,0-5.014-2.775-8.381-3.319c-3.182-0.514-5.583,1.026-8.598,1.206
				C870,356.052,869.971,364.001,875.092,363.695L875.092,363.695z"/>
		</g>
	</g>
	<g>
		<g>
			<path d="M865.178,398.604c9.611-9.431,21.169-16.643,33.125-22.72c4.57-2.322,0.546-9.178-4.011-6.862
				c-12.541,6.374-24.654,14.072-34.733,23.962C855.896,396.578,861.519,402.194,865.178,398.604L865.178,398.604z"/>
		</g>
	</g>
	<g>
		<g>
			<path d="M863.663,431.759c10.881-25.272,36.059-40.624,60.101-51.62c4.656-2.129,0.614-8.977-4.011-6.862
				c-25.141,11.498-51.585,28.07-62.952,54.471C854.798,432.402,861.642,436.455,863.663,431.759L863.663,431.759z"/>
		</g>
	</g>
	<g>
		<g>
			<path d="M859.422,459.334c21.812-36.677,56.721-65.659,94.076-85.57c4.524-2.411,0.509-9.271-4.011-6.862
				c-38.521,20.532-74.445,50.618-96.927,88.421C849.934,459.738,856.806,463.733,859.422,459.334L859.422,459.334z"/>
		</g>
	</g>
	<g>
		<g>
			<path d="M863.042,483.486c34.621-43.209,73.177-86.924,122.263-113.979c4.488-2.474,0.48-9.337-4.011-6.862
				c-49.685,27.385-88.826,71.483-123.872,115.222C854.252,481.824,859.837,487.486,863.042,483.486L863.042,483.486z"/>
		</g>
	</g>
	<g>
		<g>
			<path d="M882.143,496.218c39.39-49.149,84.363-92.484,133.685-131.573c4.015-3.182-1.649-8.766-5.619-5.619
				c-49.321,39.089-94.294,82.425-133.685,131.573C873.353,494.555,878.938,500.217,882.143,496.218L882.143,496.218z"/>
		</g>
	</g>
	<g>
		<g>
			<path d="M949.241,271.893c8.091-5.435,15.903-11.741,20.527-20.51c2.388-4.529-4.471-8.545-6.862-4.011
				c-3.995,7.575-10.682,12.961-17.676,17.659C941.001,267.872,944.974,274.76,949.241,271.893L949.241,271.893z"/>
		</g>
	</g>
	<g>
		<g>
			<path d="M954.302,292.5c11.548-9.261,22.963-18.693,35.26-26.961c4.228-2.843,0.255-9.73-4.011-6.862
				c-12.857,8.644-24.795,18.521-36.869,28.203C944.684,290.087,950.346,295.673,954.302,292.5L954.302,292.5z"/>
		</g>
	</g>
	<g>
		<g>
			<path d="M967.647,308.684c8.149-15.708,23.202-25.615,40.052-29.997c4.956-1.289,2.852-8.954-2.113-7.663
				c-18.721,4.869-35.753,16.207-44.801,33.649C958.429,309.215,965.286,313.234,967.647,308.684L967.647,308.684z"/>
		</g>
	</g>
	<g>
		<g>
			<path d="M969.146,337.07c15.456-15.405,31.989-29.653,50.119-41.836c4.229-2.842,0.256-9.729-4.011-6.862
				c-18.684,12.556-35.797,27.2-51.727,43.079C959.894,335.072,965.514,340.691,969.146,337.07L969.146,337.07z"/>
		</g>
	</g>
	<g>
		<g>
			<path d="M979.763,341.304c13.854-15.569,31.65-26.272,51.292-32.93c4.826-1.636,2.755-9.313-2.113-7.663
				c-20.895,7.083-40.045,18.395-54.799,34.974C970.75,339.499,976.35,345.14,979.763,341.304L979.763,341.304z"/>
		</g>
	</g>
	<g>
		<g>
			<path d="M989.562,365.266c11.872-7.892,24.057-15.306,36.116-22.904c8.752-5.515,18.728-10.787,26.229-18.023
				c3.694-3.564-1.932-9.177-5.619-5.619c-7.318,7.06-17.242,12.131-25.783,17.513c-11.672,7.355-23.463,14.533-34.954,22.172
				C981.306,361.226,985.281,368.112,989.562,365.266L989.562,365.266z"/>
		</g>
	</g>
	<g>
		<g>
			<path d="M1049.198,337.184c-22.464,10.262-44.559,21.273-65.767,33.952c-4.393,2.626-0.399,9.498,4.011,6.862
				c21.208-12.679,43.304-23.69,65.767-33.952C1057.865,341.919,1053.823,335.071,1049.198,337.184L1049.198,337.184z"/>
		</g>
	</g>
	<g>
		<g>
			<path d="M1052.283,353.77c-35.134,12.012-66.624,39.925-85.136,71.858c-2.575,4.442,4.294,8.442,6.862,4.011
				c17.445-30.093,47.225-56.868,80.387-68.206C1059.216,359.785,1057.146,352.107,1052.283,353.77L1052.283,353.77z"/>
		</g>
	</g>
	<g>
		<g>
			<path d="M1067.128,377.111c-32.124,9.498-59.319,34.767-78.761,61.247c-3.038,4.138,3.863,8.095,6.862,4.011
				c18.182-24.765,43.992-48.719,74.011-57.595C1074.143,383.324,1072.054,375.654,1067.128,377.111L1067.128,377.111z"/>
		</g>
	</g>
	<g>
		<g>
			<path d="M1074.675,392.363c-23.667,11.975-46.812,29.488-60.846,52.348c-2.689,4.38,4.187,8.369,6.862,4.011
				c13.34-21.73,35.529-38.13,57.995-49.497C1083.26,396.911,1079.236,390.056,1074.675,392.363L1074.675,392.363z"/>
		</g>
	</g>
	<g>
		<g>
			<path d="M1092.589,406.813c-18.088,4.897-29.453,20.13-42.059,32.839c-3.611,3.641,2.007,9.262,5.619,5.619
				c11.515-11.61,22.014-26.318,38.552-30.795C1099.643,413.139,1097.543,405.472,1092.589,406.813L1092.589,406.813z"/>
		</g>
	</g>
	<g>
		<g>
			<path d="M979.174,585.447c-19.46,14.82-33.881,35.264-46.743,55.805c-13.525,21.6-25.094,44.327-37.445,66.597
				c-2.488,4.485,4.377,8.493,6.862,4.011c11.846-21.36,23.029-43.082,35.79-63.923c12.389-20.234,26.456-41.089,45.547-55.628
				C987.205,589.248,983.253,582.341,979.174,585.447L979.174,585.447z"/>
		</g>
	</g>
	<g>
		<g>
			<path d="M1107.83,509.683c-22.424,23.683-44.5,47.692-66.627,71.652c-21.466,23.244-44.286,45.628-64.026,70.377
				c-16.185,20.292-29.426,42.883-45.938,62.829c-5.148,6.219-10.05,12.66-14.821,19.171c-2.114,2.884-8.517,9.354-6.135,13.42
				c2.097,3.579,5.785,1.588,7.938-0.53c3.658-3.598-1.964-9.214-5.619-5.619c-1.926,1.895,0.064-0.498,2.169,0.312
				c0.925,0.925,1.85,1.85,2.775,2.775c0.494,1.856-0.774,3.27,0.465,1.238c0.613-1.007,1.289-1.977,1.957-2.947
				c1.974-2.869,4.054-5.666,6.139-8.455c4.371-5.845,8.839-11.656,13.642-17.155c8.031-9.195,14.381-20.146,21.398-30.144
				c8.329-11.867,16.908-23.557,26.095-34.777c9.508-11.612,20.028-22.318,30.267-33.277c10.703-11.455,21.344-22.967,31.979-34.485
				c21.237-23,42.438-46.034,63.962-68.766C1116.97,511.584,1111.36,505.955,1107.83,509.683L1107.83,509.683z"/>
		</g>
	</g>
	<g>
		<g>
			<path d="M1028.673,555.057c-18.276,28.048-46.152,48.182-68.247,72.969c-11.253,12.624-20.406,26.566-28.745,41.237
				c-8.572,15.081-16.638,30.58-27.575,44.136c-3.186,3.949,2.401,9.609,5.619,5.619c10.659-13.212,18.841-27.994,27.127-42.748
				c8.799-15.668,18.327-30.435,30.313-43.88c22.23-24.939,49.962-45.071,68.37-73.322
				C1038.342,554.76,1031.458,550.782,1028.673,555.057L1028.673,555.057z"/>
		</g>
	</g>
	<g>
		<g>
			<path d="M1113.555,531.715c-21.536,46.268-66.823,76.536-103.991,109.31c-9.107,8.031-18.054,16.203-25.714,25.651
				c-7.819,9.645-14.726,20.004-21.461,30.422c-13.08,20.234-24.952,42.136-41.76,59.609c-1.867,1.941-3.853,3.763-5.906,5.505
				c-3.914,3.32,1.737,8.913,5.619,5.619c17.397-14.757,29.294-35.836,41.351-54.867c13.526-21.35,26.998-42.028,45.667-59.271
				c36.772-33.963,81.122-62.634,107.112-106.564c2.184-3.692,4.136-7.515,5.945-11.402
				C1122.565,531.111,1115.716,527.072,1113.555,531.715L1113.555,531.715z"/>
		</g>
	</g>
	<g>
		<g>
			<path d="M943.685,784.817c28.509-32.969,61.09-62.126,92.38-92.374c30.078-29.076,60.149-59.383,82.232-95.183
				c2.699-4.375-4.178-8.363-6.862-4.011c-22.03,35.714-52.208,65.752-82.206,94.751c-30.888,29.86-63.02,58.652-91.164,91.198
				C934.731,783.053,940.327,788.7,943.685,784.817L943.685,784.817z"/>
		</g>
	</g>
	<g>
		<g>
			<path d="M929.831,795.795c1.699-4.832,5.139-8.279,9.979-9.956c4.811-1.667,2.743-9.346-2.113-7.663
				c-7.611,2.637-12.861,7.917-15.53,15.507C920.464,798.53,928.143,800.596,929.831,795.795L929.831,795.795z"/>
		</g>
	</g>
	<g>
		<g>
			<path d="M941.564,820.874c70.264-55.617,117.41-134.383,186.73-190.971c3.972-3.243-1.686-8.831-5.619-5.619
				c-69.319,56.588-116.466,135.354-186.73,190.971C931.928,818.434,937.592,824.018,941.564,820.874L941.564,820.874z"/>
		</g>
	</g>
	<g>
		<g>
			<path d="M959.149,851.908c20.265-33.967,53.578-56.783,83.988-80.875c32.428-25.691,52.278-63.344,78.795-94.44
				c3.305-3.875-2.289-9.525-5.619-5.619c-26.969,31.626-47.149,69.369-80.126,95.495c-30.6,24.243-63.515,47.26-83.9,81.429
				C949.655,852.309,956.527,856.304,959.149,851.908L959.149,851.908z"/>
		</g>
	</g>
	<g>
		<g>
			<path d="M958.528,882.431c40.903-44.919,95.171-74.191,140.048-114.601c3.816-3.436-1.823-9.038-5.619-5.619
				c-44.878,40.411-99.138,69.673-140.048,114.601C949.467,880.591,955.07,886.227,958.528,882.431L958.528,882.431z"/>
		</g>
	</g>
	<g>
		<g>
			<path d="M971.267,895.161c25.57-29.499,61.235-46.415,94.681-65.175c4.469-2.507,0.464-9.372-4.011-6.862
				c-34.021,19.083-70.282,36.413-96.29,66.418C962.308,893.394,967.904,899.04,971.267,895.161L971.267,895.161z"/>
		</g>
	</g>
	<g>
		<g>
			<path d="M973.388,907.892c13.079-12.785,30.16-20.194,45.878-29.097c4.458-2.525,0.454-9.391-4.011-6.862
				c-16.341,9.256-33.885,17.044-47.486,30.339C964.099,905.86,969.722,911.475,973.388,907.892L973.388,907.892z"/>
		</g>
	</g>
</g>
</svg>
